<svg id="svg" version="1.1" xmlns="http://www.w3.org/2000/svg" xmlns:xlink="http://www.w3.org/1999/xlink" width="400" height="400" viewBox="0, 0, 400,400"><g id="svgg"><path id="path0" d="M390.000 0.610 C 390.000 0.945,389.595 1.382,389.100 1.580 C 387.347 2.282,375.878 14.307,376.710 14.571 C 378.062 15.000,385.717 23.111,385.511 23.897 C 385.332 24.582,392.347 17.744,397.520 12.190 L 400.000 9.528 400.000 6.962 C 400.000 4.450,399.962 4.358,398.200 2.621 C 397.210 1.645,396.400 0.656,396.400 0.423 C 396.400 0.161,395.184 0.000,393.200 0.000 C 390.599 0.000,390.000 0.114,390.000 0.610 M354.551 12.400 C 352.839 12.754,311.223 53.708,308.698 57.524 C 307.062 59.996,306.161 64.527,305.802 72.079 C 305.567 77.029,305.085 81.785,304.535 84.575 C 304.408 85.221,303.380 86.751,302.252 87.975 C 301.123 89.199,308.390 82.001,318.400 71.980 C 328.410 61.960,344.779 45.580,354.776 35.580 C 364.773 25.581,372.055 18.257,370.958 19.304 L 368.964 21.208 364.440 16.804 C 361.952 14.382,359.597 12.400,359.208 12.400 C 358.819 12.400,357.983 12.323,357.350 12.230 C 356.718 12.136,355.458 12.213,354.551 12.400 M374.175 16.100 L 373.000 17.400 374.300 16.225 C 375.015 15.579,375.600 14.994,375.600 14.925 C 375.600 14.616,375.270 14.888,374.175 16.100 M347.109 62.681 C 328.915 80.875,314.087 95.820,314.159 95.892 C 314.230 95.964,314.785 95.834,315.391 95.603 C 315.998 95.373,318.722 95.008,321.447 94.792 C 324.171 94.576,328.617 94.225,331.327 94.010 C 342.097 93.159,339.942 94.741,366.065 68.498 C 386.963 47.505,387.538 46.886,387.806 45.100 C 388.338 41.552,387.855 40.401,384.271 36.678 C 378.499 30.681,378.960 31.328,379.796 30.404 C 382.878 26.999,375.957 33.833,347.109 62.681 M152.200 69.578 C 149.780 69.744,146.810 70.075,145.600 70.315 C 144.390 70.555,141.624 70.958,139.454 71.210 C 137.283 71.462,134.786 71.923,133.903 72.234 C 133.021 72.545,131.609 72.800,130.765 72.800 C 129.921 72.800,128.278 73.146,127.115 73.569 C 125.952 73.991,124.210 74.461,123.244 74.613 C 122.278 74.765,120.748 75.225,119.844 75.636 C 118.940 76.046,117.750 76.387,117.200 76.394 C 116.650 76.400,115.660 76.687,115.000 77.032 C 114.340 77.377,112.900 77.899,111.800 78.191 C 110.700 78.483,109.260 79.009,108.600 79.359 C 107.940 79.709,107.076 79.996,106.679 79.998 C 106.283 79.999,105.293 80.343,104.479 80.762 C 103.666 81.180,101.830 82.015,100.400 82.616 C 98.970 83.216,96.897 84.134,95.794 84.654 C 94.691 85.174,93.588 85.600,93.343 85.600 C 93.098 85.600,92.698 85.841,92.454 86.135 C 92.209 86.430,91.309 86.880,90.452 87.137 C 89.596 87.394,88.672 87.873,88.398 88.202 C 88.125 88.531,87.586 88.800,87.200 88.800 C 86.814 88.800,86.272 89.072,85.996 89.405 C 85.720 89.737,84.753 90.373,83.847 90.817 C 81.270 92.082,79.818 92.899,79.600 93.206 C 79.490 93.361,78.787 93.803,78.038 94.187 C 77.288 94.571,76.478 95.053,76.238 95.257 C 75.997 95.462,74.720 96.344,73.400 97.217 C 67.750 100.954,63.741 103.957,58.000 108.749 C 52.731 113.147,38.885 127.534,37.106 130.458 C 36.724 131.086,36.229 131.600,36.006 131.600 C 35.783 131.600,35.600 131.796,35.600 132.036 C 35.600 132.276,34.828 133.401,33.884 134.536 C 32.940 135.671,31.635 137.410,30.985 138.400 C 30.334 139.390,29.661 140.304,29.487 140.432 C 29.164 140.670,26.260 145.104,24.793 147.600 C 24.341 148.370,23.539 149.720,23.013 150.600 C 22.486 151.480,21.791 152.763,21.468 153.451 C 21.146 154.139,20.696 154.817,20.470 154.957 C 20.244 155.097,19.838 155.879,19.569 156.695 C 19.300 157.510,18.837 158.420,18.540 158.717 C 18.244 159.013,17.883 159.738,17.740 160.328 C 17.596 160.918,17.158 161.813,16.767 162.319 C 16.375 162.824,15.941 163.757,15.802 164.391 C 15.663 165.026,15.290 165.759,14.974 166.021 C 14.658 166.283,14.400 166.752,14.400 167.062 C 14.400 167.373,13.950 168.515,13.400 169.600 C 12.850 170.685,12.400 171.839,12.400 172.164 C 12.400 172.489,12.057 173.350,11.639 174.077 C 11.220 174.805,10.760 175.967,10.616 176.661 C 10.471 177.354,10.004 178.608,9.577 179.446 C 9.150 180.284,8.799 181.336,8.798 181.785 C 8.796 182.233,8.502 183.140,8.143 183.800 C 7.785 184.460,7.348 185.847,7.172 186.883 C 6.997 187.919,6.578 189.359,6.241 190.083 C 5.904 190.807,5.457 192.495,5.247 193.834 C 5.037 195.173,4.581 196.950,4.233 197.783 C 3.885 198.616,3.598 199.951,3.595 200.749 C 3.593 201.547,3.231 203.640,2.791 205.400 C 2.162 207.917,1.268 215.432,1.209 218.700 C 1.204 218.975,0.930 219.200,0.600 219.200 C 0.077 219.200,0.000 221.156,0.000 234.400 C 0.000 247.644,0.077 249.600,0.600 249.600 C 0.930 249.600,1.200 249.834,1.200 250.120 C 1.200 252.854,2.172 261.587,2.617 262.847 C 2.928 263.730,3.302 265.656,3.448 267.126 C 3.593 268.597,4.022 270.610,4.400 271.600 C 4.779 272.590,5.214 274.373,5.366 275.563 C 5.519 276.752,5.918 278.254,6.252 278.901 C 6.587 279.548,7.017 280.915,7.208 281.939 C 7.588 283.971,8.946 288.299,9.800 290.200 C 10.097 290.860,10.559 292.120,10.827 293.000 C 11.095 293.880,11.558 294.955,11.857 295.389 C 12.156 295.823,12.400 296.507,12.400 296.910 C 12.400 297.312,12.753 298.307,13.185 299.121 C 14.307 301.237,16.000 305.085,16.000 305.521 C 16.000 305.725,16.335 306.321,16.745 306.846 C 17.155 307.371,17.629 308.250,17.800 308.800 C 17.971 309.350,18.445 310.229,18.855 310.754 C 19.265 311.279,19.600 312.022,19.600 312.405 C 19.600 312.788,19.849 313.309,20.154 313.562 C 20.458 313.814,21.312 315.232,22.051 316.711 C 22.790 318.190,23.801 319.909,24.297 320.531 C 24.794 321.153,25.200 321.814,25.200 322.001 C 25.200 322.187,26.102 323.659,27.204 325.270 C 28.307 326.882,30.019 329.382,31.009 330.827 C 38.900 342.344,56.995 360.632,67.200 367.403 C 68.190 368.060,69.109 368.747,69.243 368.930 C 69.376 369.112,69.944 369.563,70.506 369.931 C 71.067 370.299,73.048 371.635,74.908 372.900 C 76.767 374.165,78.472 375.200,78.696 375.200 C 78.919 375.200,79.339 375.485,79.628 375.834 C 79.918 376.183,80.840 376.743,81.677 377.078 C 82.515 377.413,83.200 377.835,83.200 378.016 C 83.200 378.198,83.605 378.472,84.100 378.626 C 84.595 378.779,85.450 379.218,86.000 379.600 C 86.550 379.982,87.450 380.433,88.000 380.601 C 88.550 380.770,89.090 381.038,89.200 381.197 C 89.462 381.576,95.363 384.400,95.893 384.400 C 96.118 384.400,96.526 384.670,96.800 385.000 C 97.074 385.330,97.565 385.600,97.891 385.600 C 98.217 385.600,99.380 386.050,100.475 386.600 C 101.570 387.150,102.642 387.600,102.858 387.600 C 103.075 387.600,104.235 388.050,105.437 388.600 C 106.640 389.150,107.850 389.600,108.127 389.600 C 108.404 389.600,109.337 389.960,110.200 390.400 C 111.063 390.840,112.136 391.201,112.585 391.202 C 113.033 391.204,113.919 391.475,114.552 391.806 C 115.186 392.136,116.883 392.680,118.325 393.014 C 119.766 393.349,121.151 393.793,121.403 394.003 C 121.656 394.212,123.045 394.551,124.490 394.756 C 125.936 394.961,127.526 395.346,128.024 395.613 C 128.522 395.879,130.565 396.342,132.564 396.642 C 134.564 396.942,137.184 397.460,138.387 397.794 C 139.590 398.127,141.570 398.415,142.787 398.434 C 146.295 398.487,149.739 399.017,149.910 399.529 C 150.133 400.198,181.464 400.207,181.687 399.538 C 181.862 399.013,185.140 398.472,188.413 398.429 C 189.630 398.413,191.610 398.127,192.813 397.794 C 194.016 397.460,196.620 396.938,198.600 396.632 C 200.580 396.327,202.830 395.812,203.600 395.487 C 204.370 395.162,206.032 394.772,207.294 394.620 C 208.555 394.468,209.680 394.195,209.792 394.012 C 209.905 393.830,210.943 393.468,212.099 393.209 C 213.254 392.950,215.043 392.392,216.074 391.969 C 217.105 391.546,218.282 391.200,218.690 391.200 C 219.097 391.200,220.116 390.850,220.954 390.423 C 221.792 389.996,222.983 389.536,223.600 389.400 C 224.217 389.264,225.408 388.804,226.246 388.377 C 227.084 387.950,228.010 387.600,228.305 387.600 C 228.600 387.600,229.507 387.249,230.321 386.819 C 231.134 386.389,232.700 385.649,233.800 385.174 C 236.715 383.915,244.933 379.893,245.400 379.497 C 245.620 379.310,246.378 378.852,247.084 378.479 C 250.839 376.493,254.400 374.299,254.400 373.972 C 254.400 373.767,254.656 373.600,254.969 373.600 C 255.282 373.600,256.073 373.150,256.727 372.600 C 257.381 372.050,258.044 371.600,258.200 371.600 C 258.356 371.600,259.050 371.147,259.742 370.594 C 261.397 369.271,261.601 369.121,262.927 368.270 C 263.546 367.872,264.390 367.244,264.801 366.873 C 265.213 366.503,265.966 365.896,266.475 365.523 C 272.163 361.364,283.677 350.768,288.624 345.138 C 289.395 344.260,293.766 339.084,294.482 338.200 C 296.599 335.586,299.088 332.267,300.091 330.720 C 300.775 329.664,301.463 328.800,301.619 328.800 C 301.775 328.800,302.127 328.260,302.400 327.600 C 302.673 326.940,303.022 326.400,303.174 326.400 C 303.327 326.400,303.758 325.815,304.133 325.100 C 304.507 324.385,305.347 322.990,305.999 322.000 C 306.651 321.010,307.369 319.840,307.595 319.400 C 307.821 318.960,308.547 317.700,309.207 316.600 C 309.867 315.500,310.693 313.970,311.043 313.200 C 311.393 312.430,311.910 311.530,312.193 311.200 C 312.475 310.870,312.841 310.150,313.008 309.600 C 313.174 309.050,313.633 308.187,314.027 307.681 C 314.422 307.176,314.859 306.243,314.998 305.609 C 315.137 304.974,315.510 304.241,315.826 303.979 C 316.142 303.717,316.400 303.227,316.400 302.891 C 316.400 302.555,316.828 301.362,317.352 300.240 C 319.271 296.125,319.899 294.569,320.192 293.200 C 320.357 292.430,320.633 291.620,320.805 291.400 C 320.977 291.180,321.667 289.290,322.339 287.200 C 323.010 285.110,323.853 282.500,324.211 281.400 C 324.570 280.300,325.099 278.320,325.388 277.000 C 325.677 275.680,326.176 273.880,326.497 273.000 C 326.818 272.120,327.200 270.230,327.347 268.800 C 327.493 267.370,327.876 265.445,328.197 264.522 C 328.518 263.599,328.966 260.878,329.193 258.474 C 329.420 256.071,329.829 253.496,330.103 252.752 C 330.940 250.476,330.794 219.578,329.925 215.200 C 329.554 213.330,329.135 210.459,328.993 208.819 C 328.852 207.180,328.486 205.104,328.182 204.206 C 327.877 203.309,327.506 201.500,327.358 200.187 C 327.210 198.874,326.770 196.900,326.380 195.800 C 325.991 194.700,325.554 192.938,325.409 191.883 C 325.264 190.829,324.802 189.209,324.382 188.283 C 323.961 187.358,323.614 186.185,323.609 185.678 C 323.604 185.171,323.260 184.001,322.845 183.078 C 322.430 182.155,321.963 180.770,321.806 180.000 C 321.650 179.230,321.269 178.201,320.961 177.714 C 320.652 177.227,320.400 176.619,320.400 176.364 C 320.400 175.861,318.908 172.220,317.365 168.960 C 316.834 167.838,316.400 166.776,316.400 166.600 C 316.400 166.141,314.353 161.913,313.785 161.200 C 313.522 160.870,313.193 160.118,313.053 159.528 C 312.913 158.938,312.553 158.210,312.252 157.909 C 311.952 157.609,311.571 156.921,311.407 156.381 C 311.242 155.842,310.782 155.040,310.384 154.600 C 309.985 154.160,309.540 153.318,309.394 152.729 C 309.248 152.141,308.784 151.348,308.364 150.967 C 307.944 150.587,307.600 150.092,307.600 149.867 C 307.600 149.643,306.760 148.185,305.734 146.629 C 304.708 145.073,303.403 143.086,302.834 142.213 C 302.265 141.341,301.566 140.351,301.280 140.013 C 300.994 139.676,300.184 138.564,299.480 137.542 C 297.184 134.209,292.471 128.252,290.211 125.826 C 288.098 123.558,287.546 122.221,288.375 121.380 C 288.581 121.171,281.696 128.073,273.075 136.717 C 254.956 154.884,256.771 152.974,257.884 152.701 C 258.546 152.538,259.015 152.799,259.750 153.742 C 260.289 154.434,261.241 155.579,261.865 156.286 C 263.008 157.582,263.469 158.166,265.494 160.886 C 267.460 163.528,268.163 164.535,270.300 167.767 C 271.455 169.514,272.400 171.084,272.400 171.254 C 272.400 171.425,272.830 172.198,273.356 172.973 C 273.882 173.748,275.417 176.681,276.769 179.491 C 278.120 182.301,279.580 185.266,280.013 186.079 C 280.446 186.893,280.800 187.994,280.800 188.525 C 280.800 189.057,281.145 189.931,281.567 190.467 C 281.989 191.004,282.463 192.153,282.621 193.021 C 282.779 193.890,283.219 195.230,283.598 196.000 C 283.977 196.770,284.411 198.201,284.561 199.180 C 284.712 200.159,285.020 201.183,285.246 201.455 C 285.471 201.727,285.911 203.407,286.222 205.189 C 286.533 206.971,286.948 208.737,287.144 209.114 C 287.341 209.491,287.722 211.690,287.993 214.000 C 288.263 216.310,288.735 219.427,289.042 220.926 C 289.854 224.894,289.822 244.491,288.998 248.412 C 288.666 249.987,288.202 253.007,287.966 255.123 C 287.730 257.239,287.376 259.271,287.179 259.638 C 286.983 260.006,286.620 261.605,286.374 263.192 C 286.128 264.779,285.587 266.825,285.172 267.738 C 284.757 268.652,284.414 269.902,284.409 270.516 C 284.404 271.130,284.040 272.338,283.600 273.200 C 283.160 274.062,282.798 275.090,282.796 275.484 C 282.794 275.878,282.350 277.100,281.809 278.200 C 281.268 279.300,280.819 280.415,280.813 280.679 C 280.806 280.942,280.350 282.004,279.800 283.038 C 279.250 284.073,278.800 285.230,278.800 285.611 C 278.800 285.991,278.559 286.502,278.265 286.746 C 277.970 286.991,277.520 287.891,277.263 288.748 C 277.006 289.604,276.527 290.528,276.198 290.802 C 275.869 291.075,275.600 291.563,275.600 291.887 C 275.600 292.211,275.244 292.976,274.810 293.586 C 274.375 294.196,273.832 295.124,273.602 295.648 C 273.372 296.171,272.654 297.410,272.007 298.400 C 271.360 299.390,270.562 300.785,270.235 301.500 C 269.908 302.215,269.464 302.800,269.247 302.800 C 269.031 302.800,268.727 303.205,268.572 303.700 C 268.417 304.195,267.910 305.072,267.445 305.650 C 266.980 306.227,266.240 307.201,265.800 307.815 C 264.539 309.573,262.899 311.744,262.325 312.414 C 262.036 312.752,260.810 314.189,259.600 315.609 C 254.907 321.114,246.162 329.292,240.600 333.378 C 240.160 333.702,239.260 334.388,238.600 334.904 C 237.530 335.740,234.636 337.732,231.651 339.689 C 230.079 340.719,227.702 342.092,225.783 343.079 C 224.843 343.562,223.956 344.147,223.813 344.379 C 223.670 344.610,223.228 344.800,222.830 344.800 C 222.433 344.800,221.664 345.149,221.122 345.575 C 220.580 346.002,219.611 346.478,218.968 346.634 C 218.326 346.789,217.322 347.250,216.738 347.658 C 216.154 348.066,215.434 348.406,215.138 348.413 C 214.842 348.419,213.700 348.868,212.600 349.409 C 211.500 349.950,210.374 350.394,210.099 350.396 C 209.823 350.398,208.925 350.760,208.104 351.200 C 207.284 351.640,206.249 352.004,205.806 352.009 C 205.363 352.014,204.215 352.374,203.256 352.809 C 202.297 353.244,201.127 353.606,200.656 353.613 C 200.185 353.620,198.810 353.987,197.600 354.429 C 196.390 354.870,194.410 355.381,193.200 355.564 C 191.990 355.746,189.920 356.181,188.600 356.531 C 187.280 356.880,184.310 357.355,182.000 357.586 C 179.690 357.817,176.900 358.174,175.800 358.379 C 173.270 358.851,158.924 358.858,156.000 358.388 C 154.790 358.194,151.730 357.832,149.200 357.584 C 146.670 357.337,143.880 356.953,143.000 356.732 C 142.120 356.511,140.500 356.152,139.400 355.934 C 138.300 355.717,136.010 355.102,134.311 354.569 C 132.612 354.036,130.876 353.600,130.454 353.600 C 130.033 353.600,128.903 353.244,127.944 352.809 C 126.985 352.374,125.837 352.014,125.394 352.009 C 124.951 352.004,123.916 351.640,123.096 351.200 C 122.275 350.760,121.377 350.398,121.101 350.396 C 120.826 350.394,119.700 349.950,118.600 349.409 C 117.500 348.868,116.385 348.419,116.121 348.413 C 115.858 348.406,114.796 347.950,113.762 347.400 C 112.727 346.850,111.660 346.400,111.389 346.400 C 111.119 346.400,110.675 346.131,110.402 345.803 C 110.130 345.474,109.208 345.018,108.353 344.787 C 107.499 344.557,106.800 344.216,106.800 344.028 C 106.800 343.840,106.125 343.392,105.300 343.032 C 104.475 342.673,102.990 341.847,102.000 341.197 C 101.010 340.548,99.834 339.852,99.387 339.651 C 98.940 339.450,97.747 338.655,96.737 337.884 C 95.727 337.113,94.504 336.270,94.020 336.011 C 93.536 335.751,92.805 335.238,92.395 334.870 C 91.986 334.501,91.234 333.896,90.725 333.523 C 83.808 328.466,72.069 317.048,68.400 311.809 C 67.850 311.024,67.040 309.953,66.600 309.429 C 65.210 307.775,64.399 306.658,63.096 304.600 C 62.399 303.500,61.730 302.510,61.609 302.400 C 61.155 301.989,57.200 295.286,57.200 294.928 C 57.200 294.723,56.750 293.945,56.200 293.200 C 55.650 292.455,55.200 291.542,55.200 291.171 C 55.200 290.801,54.939 290.282,54.620 290.017 C 54.302 289.752,53.829 288.875,53.570 288.068 C 53.311 287.261,52.866 286.330,52.581 286.000 C 52.296 285.670,51.944 284.924,51.799 284.343 C 51.654 283.762,51.100 282.427,50.567 281.375 C 50.035 280.324,49.600 279.208,49.600 278.894 C 49.600 278.580,49.346 277.846,49.036 277.262 C 48.374 276.013,47.007 271.913,46.216 268.800 C 45.909 267.590,45.374 265.616,45.029 264.413 C 44.683 263.210,44.400 261.847,44.400 261.384 C 44.400 260.921,44.132 259.745,43.804 258.771 C 43.477 257.797,42.922 254.480,42.572 251.400 C 42.221 248.320,41.779 244.630,41.588 243.200 C 41.146 239.890,41.146 229.458,41.587 225.800 C 41.773 224.260,42.221 220.570,42.582 217.600 C 42.944 214.630,43.500 211.403,43.820 210.429 C 44.139 209.455,44.400 208.279,44.400 207.816 C 44.400 207.353,44.683 205.990,45.029 204.787 C 45.374 203.584,45.909 201.610,46.216 200.400 C 46.957 197.484,48.350 193.245,48.976 192.000 C 49.252 191.450,49.708 190.148,49.989 189.108 C 50.270 188.067,50.747 187.010,51.050 186.759 C 51.352 186.508,51.600 185.898,51.600 185.405 C 51.600 184.912,51.949 184.064,52.375 183.522 C 52.802 182.980,53.279 182.011,53.436 181.368 C 53.593 180.726,54.055 179.771,54.461 179.246 C 54.867 178.721,55.200 177.967,55.200 177.570 C 55.200 177.172,55.390 176.730,55.621 176.587 C 56.012 176.345,56.477 175.530,58.600 171.368 C 59.040 170.506,59.492 169.710,59.604 169.600 C 59.857 169.351,61.916 166.254,63.940 163.075 C 64.456 162.264,65.041 161.600,65.240 161.600 C 65.438 161.600,65.600 161.399,65.600 161.153 C 65.600 160.907,66.095 160.106,66.700 159.373 C 67.305 158.639,68.160 157.568,68.600 156.992 C 70.842 154.057,81.440 143.116,85.400 139.649 C 89.412 136.136,99.263 129.183,101.787 128.083 C 102.440 127.798,103.070 127.424,103.187 127.251 C 103.392 126.949,104.364 126.406,107.800 124.675 C 108.680 124.231,109.670 123.648,110.000 123.379 C 110.330 123.109,111.185 122.765,111.900 122.613 C 112.615 122.461,113.200 122.185,113.200 121.999 C 113.200 121.814,113.875 121.442,114.700 121.172 C 115.525 120.903,116.827 120.349,117.594 119.941 C 118.361 119.534,119.263 119.200,119.600 119.200 C 119.937 119.200,120.884 118.840,121.704 118.400 C 122.525 117.960,123.473 117.600,123.811 117.600 C 124.148 117.600,125.493 117.150,126.800 116.600 C 128.107 116.050,129.608 115.600,130.137 115.600 C 130.666 115.600,131.886 115.258,132.849 114.839 C 133.812 114.421,135.572 113.950,136.761 113.793 C 137.950 113.637,139.480 113.277,140.161 112.994 C 140.842 112.712,142.840 112.356,144.600 112.203 C 146.360 112.051,149.150 111.630,150.800 111.268 C 154.618 110.431,177.347 110.286,179.516 111.085 C 180.240 111.352,182.760 111.764,185.116 112.002 C 187.472 112.239,190.120 112.686,191.000 112.994 C 191.880 113.302,193.500 113.674,194.600 113.821 C 195.700 113.968,197.388 114.429,198.351 114.844 C 199.314 115.260,200.534 115.600,201.063 115.600 C 201.592 115.600,203.093 116.050,204.400 116.600 C 205.707 117.150,207.052 117.600,207.389 117.600 C 207.727 117.600,208.675 117.960,209.496 118.400 C 210.316 118.840,211.241 119.200,211.550 119.200 C 211.859 119.200,212.942 119.584,213.956 120.053 C 217.820 121.840,224.681 125.289,226.600 126.409 C 227.700 127.052,229.050 127.809,229.600 128.093 C 230.150 128.377,231.394 129.147,232.364 129.805 C 233.334 130.462,234.532 131.270,235.027 131.600 C 237.903 133.520,241.091 135.797,241.684 136.355 C 242.061 136.710,242.840 137.360,243.416 137.800 C 246.534 140.181,247.574 141.411,247.314 142.407 C 247.147 143.047,250.198 140.231,255.994 134.397 C 260.911 129.449,268.816 121.530,273.563 116.800 C 278.309 112.070,281.288 109.055,280.183 110.100 C 277.648 112.495,277.141 112.467,274.200 109.763 C 271.636 107.406,263.780 101.255,261.219 99.600 C 260.367 99.050,258.980 98.101,258.135 97.490 C 255.065 95.270,250.589 92.419,250.162 92.409 C 249.921 92.404,249.407 92.050,249.021 91.623 C 248.634 91.195,247.798 90.731,247.163 90.592 C 246.528 90.453,245.897 90.157,245.761 89.936 C 245.624 89.715,244.767 89.191,243.856 88.772 C 242.945 88.353,241.930 87.828,241.600 87.605 C 241.270 87.382,240.550 87.020,240.000 86.801 C 239.450 86.581,238.730 86.237,238.400 86.036 C 238.070 85.835,236.765 85.205,235.500 84.635 C 234.235 84.066,232.252 83.150,231.094 82.600 C 229.936 82.050,228.765 81.600,228.493 81.600 C 228.220 81.600,227.325 81.240,226.504 80.800 C 225.684 80.360,224.737 80.000,224.400 80.000 C 224.063 80.000,223.161 79.666,222.394 79.259 C 221.627 78.851,220.360 78.399,219.578 78.255 C 218.795 78.111,217.452 77.634,216.593 77.196 C 215.734 76.758,214.574 76.399,214.015 76.398 C 213.457 76.396,212.460 76.113,211.800 75.767 C 211.140 75.422,209.610 74.961,208.400 74.742 C 207.190 74.524,205.210 74.010,204.000 73.600 C 202.790 73.190,200.746 72.748,199.458 72.619 C 198.170 72.489,196.785 72.206,196.382 71.990 C 195.978 71.774,193.792 71.403,191.524 71.165 C 189.256 70.928,186.140 70.470,184.600 70.148 C 181.346 69.468,159.438 69.083,152.200 69.578 M290.996 99.300 L 284.200 106.200 291.100 99.404 C 294.895 95.667,298.000 92.562,298.000 92.504 C 298.000 92.219,297.309 92.890,290.996 99.300 M312.217 97.278 C 311.285 98.255,311.219 98.418,311.908 98.049 C 312.389 97.792,312.972 97.226,313.205 96.791 C 313.769 95.736,313.617 95.811,312.217 97.278 M308.617 100.878 C 307.685 101.855,307.619 102.018,308.308 101.649 C 308.789 101.392,309.372 100.826,309.605 100.391 C 310.169 99.336,310.017 99.411,308.617 100.878 M306.705 102.829 C 306.323 103.052,305.818 103.632,305.583 104.117 C 305.185 104.940,305.196 104.950,305.746 104.268 C 306.070 103.865,306.665 103.286,307.068 102.980 C 307.922 102.333,307.709 102.244,306.705 102.829 M292.617 116.878 C 291.685 117.855,291.619 118.018,292.308 117.649 C 292.789 117.392,293.372 116.826,293.605 116.391 C 294.169 115.336,294.017 115.411,292.617 116.878 M240.393 149.900 L 236.200 154.200 240.500 150.007 C 242.865 147.701,244.800 145.766,244.800 145.707 C 244.800 145.418,244.287 145.906,240.393 149.900 M164.800 151.835 C 164.470 151.922,160.941 152.252,156.958 152.568 C 152.574 152.915,149.131 153.385,148.234 153.760 C 147.420 154.100,145.819 154.502,144.677 154.654 C 143.535 154.805,141.880 155.256,141.000 155.656 C 140.120 156.055,139.037 156.386,138.594 156.391 C 138.151 156.396,137.143 156.746,136.355 157.168 C 135.566 157.591,134.174 158.138,133.261 158.384 C 132.347 158.630,131.600 158.975,131.600 159.152 C 131.600 159.329,130.901 159.683,130.047 159.939 C 129.194 160.194,128.272 160.673,127.998 161.002 C 127.725 161.331,127.199 161.600,126.829 161.600 C 126.458 161.600,125.545 162.050,124.800 162.600 C 124.055 163.150,123.308 163.600,123.140 163.600 C 122.833 163.600,120.484 165.087,119.000 166.221 C 118.560 166.557,116.760 167.889,115.000 169.180 C 111.780 171.544,102.261 181.068,100.400 183.789 C 99.850 184.593,98.675 186.184,97.789 187.325 C 96.902 188.466,95.956 189.850,95.686 190.400 C 95.416 190.950,94.747 192.120,94.200 193.000 C 92.922 195.055,90.400 200.160,90.400 200.693 C 90.400 200.918,90.152 201.308,89.848 201.560 C 89.545 201.812,89.186 202.568,89.052 203.241 C 88.917 203.914,88.546 205.034,88.227 205.732 C 87.227 207.919,85.646 213.034,85.218 215.466 C 84.992 216.750,84.506 218.790,84.138 220.000 C 83.137 223.293,83.158 245.964,84.165 249.200 C 84.542 250.410,85.019 252.480,85.226 253.800 C 85.433 255.120,85.962 257.043,86.401 258.074 C 86.841 259.105,87.200 260.278,87.200 260.680 C 87.200 261.083,87.560 262.084,88.000 262.904 C 88.440 263.725,88.800 264.605,88.800 264.860 C 88.800 265.295,90.369 268.959,91.216 270.500 C 91.775 271.519,92.252 272.466,92.776 273.600 C 93.031 274.150,93.673 275.320,94.204 276.200 C 94.734 277.080,95.470 278.340,95.839 279.000 C 96.208 279.660,97.160 281.047,97.955 282.082 C 98.750 283.117,99.850 284.624,100.400 285.431 C 101.712 287.354,112.655 298.314,114.547 299.600 C 115.357 300.150,117.015 301.356,118.232 302.280 C 119.449 303.204,120.830 304.083,121.300 304.232 C 121.770 304.381,122.975 305.076,123.977 305.777 C 126.016 307.203,133.989 311.200,134.794 311.200 C 135.079 311.200,136.052 311.537,136.956 311.949 C 139.273 313.004,145.218 314.815,146.338 314.807 C 146.854 314.803,148.474 315.155,149.938 315.590 C 155.863 317.347,175.382 317.350,181.262 315.595 C 182.726 315.158,184.346 314.803,184.862 314.807 C 185.933 314.815,191.811 313.053,194.200 312.007 C 195.080 311.622,196.373 311.182,197.072 311.028 C 197.772 310.874,198.559 310.490,198.821 310.174 C 199.083 309.858,199.482 309.600,199.707 309.600 C 200.466 309.600,207.692 305.839,208.688 304.926 C 208.972 304.666,209.609 304.328,210.102 304.177 C 210.596 304.025,211.302 303.608,211.671 303.250 C 212.039 302.893,212.999 302.150,213.804 301.600 C 219.648 297.604,227.960 289.372,232.200 283.382 C 232.640 282.760,233.367 281.790,233.816 281.226 C 234.264 280.662,234.852 279.750,235.122 279.200 C 235.392 278.650,236.147 277.390,236.800 276.400 C 237.453 275.410,238.093 274.330,238.222 274.000 C 238.352 273.670,238.628 273.130,238.837 272.800 C 239.045 272.470,239.488 271.570,239.821 270.800 C 240.153 270.030,240.666 268.950,240.961 268.400 C 241.256 267.850,241.726 266.680,242.005 265.800 C 242.285 264.920,242.758 263.845,243.057 263.411 C 243.356 262.977,243.600 262.205,243.600 261.695 C 243.600 261.185,243.943 260.096,244.362 259.275 C 244.781 258.453,245.246 256.885,245.396 255.791 C 245.545 254.696,246.001 252.900,246.408 251.800 C 248.549 246.023,248.545 223.144,246.404 217.400 C 245.993 216.300,245.532 214.414,245.379 213.210 C 245.226 212.005,244.863 210.655,244.572 210.210 C 244.282 209.764,243.872 208.680,243.660 207.800 C 243.264 206.151,241.778 202.261,241.138 201.200 C 240.939 200.870,240.674 200.297,240.549 199.927 C 239.771 197.631,235.178 189.664,232.981 186.800 C 232.221 185.810,231.477 184.730,231.326 184.400 C 231.176 184.070,230.709 183.553,230.289 183.251 C 229.712 182.836,229.566 182.348,229.692 181.251 C 229.848 179.889,228.890 180.772,214.123 195.600 C 200.827 208.951,198.534 211.419,199.330 211.520 C 199.915 211.595,200.522 212.125,200.933 212.920 C 201.297 213.624,201.760 214.470,201.962 214.800 C 206.624 222.417,208.347 239.178,205.200 246.293 C 204.760 247.288,204.400 248.505,204.400 248.997 C 204.400 249.489,204.063 250.321,203.652 250.846 C 203.241 251.371,202.776 252.385,202.620 253.100 C 202.464 253.815,202.191 254.400,202.014 254.400 C 201.836 254.400,201.374 255.075,200.986 255.900 C 200.599 256.725,200.173 257.490,200.040 257.600 C 199.907 257.710,199.017 258.828,198.062 260.084 C 196.502 262.138,193.112 265.453,190.700 267.283 C 190.205 267.659,189.228 268.428,188.530 268.993 C 187.831 269.558,186.706 270.214,186.030 270.450 C 185.353 270.685,184.800 271.041,184.800 271.239 C 184.800 271.438,184.565 271.600,184.279 271.600 C 183.992 271.600,182.867 272.020,181.779 272.532 C 174.680 275.878,161.808 276.882,155.277 274.600 C 153.703 274.050,152.158 273.600,151.844 273.600 C 151.337 273.600,147.995 272.106,146.400 271.166 C 146.070 270.971,145.260 270.567,144.600 270.268 C 143.940 269.969,143.153 269.426,142.851 269.062 C 142.549 268.698,142.047 268.400,141.735 268.400 C 140.984 268.400,131.600 259.033,131.600 258.282 C 131.600 257.961,131.302 257.451,130.938 257.149 C 130.574 256.847,130.031 256.060,129.732 255.400 C 129.433 254.740,129.022 253.930,128.818 253.600 C 128.078 252.397,126.400 248.435,126.400 247.887 C 126.400 247.578,126.006 246.262,125.524 244.963 C 124.180 241.342,124.167 227.238,125.503 224.085 C 125.997 222.922,126.400 221.634,126.400 221.222 C 126.400 220.572,127.773 217.400,128.834 215.600 C 129.029 215.270,129.433 214.460,129.732 213.800 C 130.031 213.140,130.574 212.353,130.938 212.051 C 131.302 211.749,131.600 211.313,131.600 211.082 C 131.600 210.628,135.143 206.385,136.789 204.868 C 141.328 200.685,149.539 195.600,151.754 195.600 C 152.231 195.600,152.977 195.357,153.411 195.060 C 156.422 192.998,172.654 192.836,177.146 194.824 C 178.112 195.251,179.194 195.599,179.551 195.598 C 181.240 195.593,188.357 199.715,188.479 200.770 C 188.587 201.696,190.342 200.071,204.211 186.206 C 218.152 172.271,219.702 170.595,218.697 170.557 C 218.078 170.533,217.353 170.250,217.086 169.929 C 216.818 169.607,216.150 169.047,215.600 168.684 C 215.050 168.321,213.880 167.490,213.000 166.836 C 212.120 166.182,210.410 165.065,209.200 164.354 C 207.990 163.642,206.571 162.732,206.046 162.330 C 205.521 161.929,204.778 161.600,204.395 161.600 C 204.012 161.600,203.482 161.339,203.217 161.020 C 202.952 160.702,202.075 160.228,201.268 159.968 C 200.461 159.708,199.564 159.308,199.275 159.078 C 198.797 158.698,197.718 158.265,193.600 156.802 C 192.830 156.529,191.300 155.979,190.200 155.581 C 189.100 155.183,187.228 154.734,186.039 154.583 C 184.850 154.432,183.239 154.041,182.459 153.715 C 181.678 153.389,178.151 152.874,174.620 152.570 C 171.089 152.266,167.570 151.940,166.800 151.846 C 166.030 151.753,165.130 151.747,164.800 151.835 M231.387 158.900 L 229.000 161.400 231.500 159.013 C 232.875 157.699,234.000 156.574,234.000 156.513 C 234.000 156.217,233.605 156.578,231.387 158.900 M248.217 161.278 C 247.285 162.255,247.219 162.418,247.908 162.049 C 248.389 161.792,248.972 161.226,249.205 160.791 C 249.769 159.736,249.617 159.811,248.217 161.278 M224.393 165.900 L 220.200 170.200 224.500 166.007 C 228.494 162.113,228.982 161.600,228.693 161.600 C 228.634 161.600,226.699 163.535,224.393 165.900 M244.617 164.878 C 243.685 165.855,243.619 166.018,244.308 165.649 C 244.789 165.392,245.372 164.826,245.605 164.391 C 246.169 163.336,246.017 163.411,244.617 164.878 M242.705 166.829 C 242.323 167.052,241.818 167.632,241.583 168.117 C 241.185 168.940,241.196 168.950,241.746 168.268 C 242.070 167.865,242.665 167.286,243.068 166.980 C 243.922 166.333,243.709 166.244,242.705 166.829 M232.217 177.278 C 231.285 178.255,231.219 178.418,231.908 178.049 C 232.389 177.792,232.972 177.226,233.205 176.791 C 233.769 175.736,233.617 175.811,232.217 177.278 M178.996 211.300 L 172.200 218.200 179.100 211.404 C 185.510 205.091,186.181 204.400,185.896 204.400 C 185.838 204.400,182.733 207.505,178.996 211.300 M196.617 212.878 C 195.685 213.855,195.619 214.018,196.308 213.649 C 196.789 213.392,197.372 212.826,197.605 212.391 C 198.169 211.336,198.017 211.411,196.617 212.878 M164.932 225.300 C 158.788 231.501,157.261 234.426,159.022 236.624 C 159.623 237.374,159.630 237.370,159.222 236.526 C 157.943 233.879,159.298 231.390,165.332 225.300 C 168.003 222.605,170.098 220.400,169.988 220.400 C 169.878 220.400,167.603 222.605,164.932 225.300 M180.617 228.878 C 179.685 229.855,179.619 230.018,180.308 229.649 C 180.789 229.392,181.372 228.826,181.605 228.391 C 182.169 227.336,182.017 227.411,180.617 228.878 M159.627 237.726 C 159.430 240.108,165.730 242.622,167.824 240.998 C 168.548 240.436,168.524 240.422,167.474 240.798 C 165.091 241.649,161.047 240.296,160.102 238.331 C 159.856 237.819,159.642 237.547,159.627 237.726 M170.550 238.985 C 170.427 239.306,169.969 239.683,169.533 239.821 C 169.097 239.960,168.828 240.161,168.936 240.269 C 169.248 240.582,170.683 239.681,170.940 239.011 C 171.069 238.675,171.085 238.400,170.975 238.400 C 170.865 238.400,170.674 238.663,170.550 238.985 " stroke="none" fill="#fb6363" fill-rule="evenodd"></path><path id="path1" d="M311.600 78.812 C 276.290 114.195,240.845 149.682,232.833 157.672 C 186.501 203.879,160.526 230.187,159.718 231.723 C 156.833 237.210,162.575 243.009,168.314 240.404 C 170.935 239.215,385.782 24.404,385.437 23.318 C 385.102 22.260,377.053 14.390,376.358 14.440 C 376.051 14.462,346.910 43.429,311.600 78.812 " stroke="none" fill="#444454" fill-rule="evenodd"></path><path id="path2" d="M0.000 109.600 C 0.000 206.756,0.068 219.200,0.600 219.200 C 0.930 219.200,1.204 218.975,1.209 218.700 C 1.268 215.432,2.162 207.917,2.791 205.400 C 3.231 203.640,3.593 201.547,3.595 200.749 C 3.598 199.951,3.885 198.616,4.233 197.783 C 4.581 196.950,5.037 195.173,5.247 193.834 C 5.457 192.495,5.904 190.807,6.241 190.083 C 6.578 189.359,6.997 187.919,7.172 186.883 C 7.348 185.847,7.785 184.460,8.143 183.800 C 8.502 183.140,8.796 182.233,8.798 181.785 C 8.799 181.336,9.150 180.284,9.577 179.446 C 10.004 178.608,10.471 177.354,10.616 176.661 C 10.760 175.967,11.220 174.805,11.639 174.077 C 12.057 173.350,12.400 172.489,12.400 172.164 C 12.400 171.839,12.850 170.685,13.400 169.600 C 13.950 168.515,14.400 167.373,14.400 167.062 C 14.400 166.752,14.658 166.283,14.974 166.021 C 15.290 165.759,15.663 165.026,15.802 164.391 C 15.941 163.757,16.375 162.824,16.767 162.319 C 17.158 161.813,17.596 160.918,17.740 160.328 C 17.883 159.738,18.244 159.013,18.540 158.717 C 18.837 158.420,19.300 157.510,19.569 156.695 C 19.838 155.879,20.244 155.097,20.470 154.957 C 20.696 154.817,21.146 154.139,21.468 153.451 C 21.791 152.763,22.486 151.480,23.013 150.600 C 23.539 149.720,24.341 148.370,24.793 147.600 C 26.260 145.104,29.164 140.670,29.487 140.432 C 29.661 140.304,30.334 139.390,30.985 138.400 C 31.635 137.410,32.940 135.671,33.884 134.536 C 34.828 133.401,35.600 132.276,35.600 132.036 C 35.600 131.796,35.783 131.600,36.006 131.600 C 36.229 131.600,36.724 131.086,37.106 130.458 C 38.280 128.528,42.308 124.091,48.999 117.359 C 57.837 108.467,63.659 103.661,73.400 97.217 C 74.720 96.344,75.997 95.462,76.238 95.257 C 76.478 95.053,77.288 94.571,78.038 94.187 C 78.787 93.803,79.490 93.361,79.600 93.206 C 79.818 92.899,81.270 92.082,83.847 90.817 C 84.753 90.373,85.720 89.737,85.996 89.405 C 86.272 89.072,86.814 88.800,87.200 88.800 C 87.586 88.800,88.125 88.531,88.398 88.202 C 88.672 87.873,89.596 87.394,90.452 87.137 C 91.309 86.880,92.209 86.430,92.454 86.135 C 92.698 85.841,93.098 85.600,93.343 85.600 C 93.588 85.600,94.691 85.174,95.794 84.654 C 96.897 84.134,98.970 83.216,100.400 82.616 C 101.830 82.015,103.666 81.180,104.479 80.762 C 105.293 80.343,106.283 79.999,106.679 79.998 C 107.076 79.996,107.940 79.709,108.600 79.359 C 109.260 79.009,110.700 78.483,111.800 78.191 C 112.900 77.899,114.340 77.377,115.000 77.032 C 115.660 76.687,116.650 76.400,117.200 76.394 C 117.750 76.387,118.940 76.046,119.844 75.636 C 120.748 75.225,122.278 74.765,123.244 74.613 C 124.210 74.461,125.952 73.991,127.115 73.569 C 128.278 73.146,129.921 72.800,130.765 72.800 C 131.609 72.800,133.021 72.545,133.903 72.234 C 134.786 71.923,137.283 71.463,139.454 71.213 C 141.624 70.963,144.930 70.455,146.800 70.084 C 151.813 69.092,179.405 69.094,184.400 70.087 C 186.270 70.459,189.573 70.955,191.741 71.190 C 193.909 71.424,196.005 71.788,196.399 71.999 C 196.793 72.210,198.170 72.489,199.458 72.619 C 200.746 72.748,202.790 73.190,204.000 73.600 C 205.210 74.010,207.190 74.524,208.400 74.742 C 209.610 74.961,211.140 75.422,211.800 75.767 C 212.460 76.113,213.457 76.396,214.015 76.398 C 214.574 76.399,215.734 76.758,216.593 77.196 C 217.452 77.634,218.795 78.111,219.578 78.255 C 220.360 78.399,221.627 78.851,222.394 79.259 C 223.161 79.666,224.063 80.000,224.400 80.000 C 224.737 80.000,225.684 80.360,226.504 80.800 C 227.325 81.240,228.220 81.600,228.493 81.600 C 228.765 81.600,229.936 82.050,231.094 82.600 C 232.252 83.150,234.235 84.066,235.500 84.635 C 236.765 85.205,238.070 85.835,238.400 86.036 C 238.730 86.237,239.450 86.581,240.000 86.801 C 240.550 87.020,241.270 87.382,241.600 87.605 C 241.930 87.828,242.945 88.353,243.856 88.772 C 244.767 89.191,245.624 89.715,245.761 89.936 C 245.897 90.157,246.528 90.453,247.163 90.592 C 247.798 90.731,248.634 91.195,249.021 91.623 C 249.407 92.050,249.921 92.404,250.162 92.409 C 250.589 92.419,255.065 95.270,258.135 97.490 C 258.980 98.101,260.367 99.050,261.219 99.600 C 263.780 101.255,271.636 107.406,274.200 109.763 C 277.198 112.519,277.676 112.520,280.400 109.780 C 281.610 108.562,282.818 107.349,283.084 107.083 C 283.350 106.817,286.950 103.208,291.084 99.063 C 295.218 94.918,298.830 91.318,299.111 91.063 C 304.762 85.940,305.193 84.729,305.782 72.321 C 306.149 64.586,307.050 60.014,308.698 57.524 C 311.641 53.076,352.845 12.771,354.834 12.393 C 358.625 11.675,359.720 12.185,364.583 16.937 L 368.959 21.214 370.909 19.307 C 371.981 18.258,376.310 13.923,380.529 9.672 C 384.748 5.422,388.605 1.782,389.100 1.582 C 389.595 1.383,390.000 0.945,390.000 0.610 C 390.000 0.064,369.474 0.000,195.000 0.000 L 0.000 0.000 0.000 109.600 M396.400 0.400 C 396.400 0.833,399.349 4.000,399.753 4.000 C 399.889 4.000,400.000 3.100,400.000 2.000 L 400.000 0.000 398.200 0.000 C 397.210 0.000,396.400 0.180,396.400 0.400 M398.284 11.300 C 397.727 12.015,393.206 16.701,388.236 21.713 C 383.266 26.725,379.200 30.955,379.201 31.113 C 379.201 31.271,381.084 33.361,383.385 35.758 C 387.952 40.515,388.421 41.524,387.792 45.250 C 387.489 47.042,347.227 88.276,342.923 91.202 C 340.696 92.716,337.303 93.538,331.327 94.010 C 328.617 94.225,324.193 94.574,321.495 94.788 C 314.315 95.355,315.461 94.560,300.953 109.025 C 286.486 123.449,287.101 122.488,290.211 125.826 C 292.471 128.252,297.184 134.209,299.480 137.542 C 300.184 138.564,300.994 139.676,301.280 140.013 C 301.566 140.351,302.265 141.341,302.834 142.213 C 303.403 143.086,304.708 145.073,305.734 146.629 C 306.760 148.185,307.600 149.643,307.600 149.867 C 307.600 150.092,307.944 150.587,308.364 150.967 C 308.784 151.348,309.248 152.141,309.394 152.729 C 309.540 153.318,309.985 154.160,310.384 154.600 C 310.782 155.040,311.242 155.842,311.407 156.381 C 311.571 156.921,311.952 157.609,312.252 157.909 C 312.553 158.210,312.913 158.938,313.053 159.528 C 313.193 160.118,313.522 160.870,313.785 161.200 C 314.353 161.913,316.400 166.141,316.400 166.600 C 316.400 166.776,316.834 167.838,317.365 168.960 C 318.908 172.220,320.400 175.861,320.400 176.364 C 320.400 176.619,320.652 177.227,320.961 177.714 C 321.269 178.201,321.650 179.230,321.806 180.000 C 321.963 180.770,322.430 182.155,322.845 183.078 C 323.260 184.001,323.604 185.171,323.609 185.678 C 323.614 186.185,323.961 187.358,324.382 188.283 C 324.802 189.209,325.264 190.829,325.409 191.883 C 325.554 192.938,325.991 194.700,326.380 195.800 C 326.770 196.900,327.210 198.874,327.358 200.187 C 327.506 201.500,327.877 203.309,328.182 204.206 C 328.486 205.104,328.852 207.180,328.993 208.819 C 329.135 210.459,329.554 213.330,329.925 215.200 C 330.794 219.578,330.940 250.476,330.103 252.752 C 329.829 253.496,329.420 256.071,329.193 258.474 C 328.966 260.878,328.518 263.599,328.197 264.522 C 327.876 265.445,327.493 267.370,327.347 268.800 C 327.200 270.230,326.818 272.120,326.497 273.000 C 326.176 273.880,325.677 275.680,325.388 277.000 C 325.099 278.320,324.570 280.300,324.211 281.400 C 323.853 282.500,323.010 285.110,322.339 287.200 C 321.667 289.290,320.977 291.180,320.805 291.400 C 320.633 291.620,320.357 292.430,320.192 293.200 C 319.899 294.569,319.271 296.125,317.352 300.240 C 316.828 301.362,316.400 302.555,316.400 302.891 C 316.400 303.227,316.142 303.717,315.826 303.979 C 315.510 304.241,315.137 304.974,314.998 305.609 C 314.859 306.243,314.422 307.176,314.027 307.681 C 313.633 308.187,313.174 309.050,313.008 309.600 C 312.841 310.150,312.475 310.870,312.193 311.200 C 311.910 311.530,311.393 312.430,311.043 313.200 C 310.693 313.970,309.867 315.500,309.207 316.600 C 308.547 317.700,307.821 318.960,307.595 319.400 C 307.369 319.840,306.651 321.010,305.999 322.000 C 305.347 322.990,304.507 324.385,304.133 325.100 C 303.758 325.815,303.327 326.400,303.174 326.400 C 303.022 326.400,302.673 326.940,302.400 327.600 C 302.127 328.260,301.775 328.800,301.619 328.800 C 301.463 328.800,300.775 329.664,300.091 330.720 C 298.213 333.617,293.115 340.028,288.624 345.138 C 283.677 350.768,272.163 361.364,266.475 365.523 C 265.966 365.896,265.213 366.503,264.801 366.873 C 264.390 367.244,263.546 367.872,262.927 368.270 C 261.601 369.121,261.397 369.271,259.742 370.594 C 259.050 371.147,258.356 371.600,258.200 371.600 C 258.044 371.600,257.381 372.050,256.727 372.600 C 256.073 373.150,255.282 373.600,254.969 373.600 C 254.656 373.600,254.400 373.767,254.400 373.972 C 254.400 374.299,250.839 376.493,247.084 378.479 C 246.378 378.852,245.620 379.310,245.400 379.497 C 244.933 379.893,236.715 383.915,233.800 385.174 C 232.700 385.649,231.134 386.389,230.321 386.819 C 229.507 387.249,228.600 387.600,228.305 387.600 C 228.010 387.600,227.084 387.950,226.246 388.377 C 225.408 388.804,224.217 389.264,223.600 389.400 C 222.983 389.536,221.792 389.996,220.954 390.423 C 220.116 390.850,219.097 391.200,218.690 391.200 C 218.282 391.200,217.105 391.546,216.074 391.969 C 215.043 392.392,213.254 392.950,212.099 393.209 C 210.943 393.468,209.905 393.830,209.792 394.012 C 209.680 394.195,208.555 394.470,207.294 394.624 C 206.032 394.779,204.186 395.222,203.191 395.611 C 202.195 395.999,200.125 396.450,198.591 396.614 C 197.056 396.777,195.080 397.166,194.200 397.479 C 193.320 397.792,190.440 398.223,187.800 398.436 C 182.618 398.855,181.600 399.050,181.600 399.627 C 181.600 399.857,223.527 400.000,290.800 400.000 L 400.000 400.000 400.000 205.000 C 400.000 92.774,399.850 10.000,399.647 10.000 C 399.454 10.000,398.840 10.585,398.284 11.300 M155.200 110.647 C 154.430 110.737,152.360 111.069,150.600 111.385 C 148.840 111.702,146.050 112.079,144.400 112.224 C 142.750 112.369,140.842 112.718,140.161 112.998 C 139.480 113.279,137.950 113.637,136.761 113.793 C 135.572 113.950,133.812 114.421,132.849 114.839 C 131.886 115.258,130.666 115.600,130.137 115.600 C 129.608 115.600,128.107 116.050,126.800 116.600 C 125.493 117.150,124.148 117.600,123.811 117.600 C 123.473 117.600,122.525 117.960,121.704 118.400 C 120.884 118.840,119.937 119.200,119.600 119.200 C 119.263 119.200,118.361 119.534,117.594 119.941 C 116.827 120.349,115.525 120.903,114.700 121.172 C 113.875 121.442,113.200 121.814,113.200 121.999 C 113.200 122.185,112.615 122.461,111.900 122.613 C 111.185 122.765,110.330 123.109,110.000 123.379 C 109.670 123.648,108.680 124.231,107.800 124.675 C 104.364 126.406,103.392 126.949,103.187 127.251 C 103.070 127.424,102.440 127.798,101.787 128.083 C 99.263 129.183,89.412 136.136,85.400 139.649 C 81.440 143.116,70.842 154.057,68.600 156.992 C 68.160 157.568,67.305 158.639,66.700 159.373 C 66.095 160.106,65.600 160.907,65.600 161.153 C 65.600 161.399,65.438 161.600,65.240 161.600 C 65.041 161.600,64.456 162.264,63.940 163.075 C 61.916 166.254,59.857 169.351,59.604 169.600 C 59.492 169.710,59.040 170.506,58.600 171.368 C 56.477 175.530,56.012 176.345,55.621 176.587 C 55.390 176.730,55.200 177.172,55.200 177.570 C 55.200 177.967,54.867 178.721,54.461 179.246 C 54.055 179.771,53.593 180.726,53.436 181.368 C 53.279 182.011,52.802 182.980,52.375 183.522 C 51.949 184.064,51.600 184.912,51.600 185.405 C 51.600 185.898,51.352 186.508,51.050 186.759 C 50.747 187.010,50.270 188.067,49.989 189.108 C 49.708 190.148,49.252 191.450,48.976 192.000 C 48.350 193.245,46.957 197.484,46.216 200.400 C 45.909 201.610,45.374 203.584,45.029 204.787 C 44.683 205.990,44.400 207.353,44.400 207.816 C 44.400 208.279,44.139 209.455,43.820 210.429 C 43.500 211.403,42.944 214.630,42.582 217.600 C 42.221 220.570,41.773 224.260,41.587 225.800 C 41.146 229.458,41.146 239.890,41.588 243.200 C 41.779 244.630,42.221 248.320,42.572 251.400 C 42.922 254.480,43.477 257.797,43.804 258.771 C 44.132 259.745,44.400 260.921,44.400 261.384 C 44.400 261.847,44.683 263.210,45.029 264.413 C 45.374 265.616,45.909 267.590,46.216 268.800 C 47.007 271.913,48.374 276.013,49.036 277.262 C 49.346 277.846,49.600 278.580,49.600 278.894 C 49.600 279.208,50.035 280.324,50.567 281.375 C 51.100 282.427,51.654 283.762,51.799 284.343 C 51.944 284.924,52.296 285.670,52.581 286.000 C 52.866 286.330,53.311 287.261,53.570 288.068 C 53.829 288.875,54.302 289.752,54.620 290.017 C 54.939 290.282,55.200 290.801,55.200 291.171 C 55.200 291.542,55.650 292.455,56.200 293.200 C 56.750 293.945,57.200 294.723,57.200 294.928 C 57.200 295.286,61.155 301.989,61.609 302.400 C 61.730 302.510,62.399 303.500,63.096 304.600 C 64.399 306.658,65.210 307.775,66.600 309.429 C 67.040 309.953,67.850 311.024,68.400 311.809 C 72.069 317.048,83.808 328.466,90.725 333.523 C 91.234 333.896,91.986 334.501,92.395 334.870 C 92.805 335.238,93.536 335.751,94.020 336.011 C 94.504 336.270,95.727 337.113,96.737 337.884 C 97.747 338.655,98.940 339.450,99.387 339.651 C 99.834 339.852,101.010 340.548,102.000 341.197 C 102.990 341.847,104.475 342.673,105.300 343.032 C 106.125 343.392,106.800 343.840,106.800 344.028 C 106.800 344.216,107.499 344.557,108.353 344.787 C 109.208 345.018,110.130 345.474,110.402 345.803 C 110.675 346.131,111.119 346.400,111.389 346.400 C 111.660 346.400,112.727 346.850,113.762 347.400 C 114.796 347.950,115.858 348.406,116.121 348.413 C 116.385 348.419,117.500 348.868,118.600 349.409 C 119.700 349.950,120.826 350.394,121.101 350.396 C 121.377 350.398,122.275 350.760,123.096 351.200 C 123.916 351.640,124.951 352.004,125.394 352.009 C 125.837 352.014,126.985 352.374,127.944 352.809 C 128.903 353.244,130.033 353.600,130.454 353.600 C 130.876 353.600,132.612 354.036,134.311 354.569 C 136.010 355.102,138.300 355.717,139.400 355.934 C 140.500 356.152,142.120 356.511,143.000 356.732 C 143.880 356.953,146.670 357.337,149.200 357.584 C 151.730 357.832,154.790 358.194,156.000 358.388 C 158.924 358.858,173.270 358.851,175.800 358.379 C 176.900 358.174,179.690 357.817,182.000 357.586 C 184.310 357.355,187.280 356.880,188.600 356.531 C 189.920 356.181,191.990 355.746,193.200 355.564 C 194.410 355.381,196.390 354.870,197.600 354.429 C 198.810 353.987,200.185 353.620,200.656 353.613 C 201.127 353.606,202.297 353.244,203.256 352.809 C 204.215 352.374,205.363 352.014,205.806 352.009 C 206.249 352.004,207.284 351.640,208.104 351.200 C 208.925 350.760,209.823 350.398,210.099 350.396 C 210.374 350.394,211.500 349.950,212.600 349.409 C 213.700 348.868,214.842 348.419,215.138 348.413 C 215.434 348.406,216.154 348.066,216.738 347.658 C 217.322 347.250,218.326 346.789,218.968 346.634 C 219.611 346.478,220.580 346.002,221.122 345.575 C 221.664 345.149,222.433 344.800,222.830 344.800 C 223.228 344.800,223.670 344.610,223.813 344.379 C 223.956 344.147,224.843 343.562,225.783 343.079 C 227.702 342.092,230.079 340.719,231.651 339.689 C 234.636 337.732,237.530 335.740,238.600 334.904 C 239.260 334.388,240.160 333.702,240.600 333.378 C 246.162 329.292,254.907 321.114,259.600 315.609 C 260.810 314.189,262.036 312.752,262.325 312.414 C 262.899 311.744,264.539 309.573,265.800 307.815 C 266.240 307.201,266.980 306.227,267.445 305.650 C 267.910 305.072,268.417 304.195,268.572 303.700 C 268.727 303.205,269.031 302.800,269.247 302.800 C 269.464 302.800,269.908 302.215,270.235 301.500 C 270.562 300.785,271.360 299.390,272.007 298.400 C 272.654 297.410,273.372 296.171,273.602 295.648 C 273.832 295.124,274.375 294.196,274.810 293.586 C 275.244 292.976,275.600 292.211,275.600 291.887 C 275.600 291.563,275.869 291.075,276.198 290.802 C 276.527 290.528,277.006 289.604,277.263 288.748 C 277.520 287.891,277.970 286.991,278.265 286.746 C 278.559 286.502,278.800 285.991,278.800 285.611 C 278.800 285.230,279.250 284.073,279.800 283.038 C 280.350 282.004,280.806 280.942,280.813 280.679 C 280.819 280.415,281.268 279.300,281.809 278.200 C 282.350 277.100,282.794 275.878,282.796 275.484 C 282.798 275.090,283.160 274.062,283.600 273.200 C 284.040 272.338,284.404 271.130,284.409 270.516 C 284.414 269.902,284.757 268.652,285.172 267.738 C 285.587 266.825,286.128 264.779,286.374 263.192 C 286.620 261.605,286.983 260.006,287.179 259.638 C 287.376 259.271,287.730 257.239,287.966 255.123 C 288.202 253.007,288.666 249.987,288.998 248.412 C 289.822 244.491,289.854 224.894,289.042 220.926 C 288.735 219.427,288.263 216.310,287.993 214.000 C 287.722 211.690,287.341 209.491,287.144 209.114 C 286.948 208.737,286.533 206.971,286.222 205.189 C 285.911 203.407,285.471 201.727,285.246 201.455 C 285.020 201.183,284.712 200.159,284.561 199.180 C 284.411 198.201,283.977 196.770,283.598 196.000 C 283.219 195.230,282.779 193.890,282.621 193.021 C 282.463 192.153,281.989 191.004,281.567 190.467 C 281.145 189.931,280.800 189.057,280.800 188.525 C 280.800 187.994,280.446 186.893,280.013 186.079 C 279.580 185.266,278.120 182.301,276.769 179.491 C 275.417 176.681,273.882 173.748,273.356 172.973 C 272.830 172.198,272.400 171.425,272.400 171.254 C 272.400 171.084,271.455 169.514,270.300 167.767 C 268.163 164.535,267.460 163.528,265.494 160.886 C 263.469 158.166,263.008 157.582,261.865 156.286 C 261.241 155.579,260.289 154.434,259.750 153.742 C 258.229 151.791,258.038 151.942,243.324 166.668 C 228.774 181.229,228.308 181.825,230.326 183.277 C 230.726 183.565,231.176 184.070,231.326 184.400 C 231.477 184.730,232.221 185.810,232.981 186.800 C 235.178 189.664,239.771 197.631,240.549 199.927 C 240.674 200.297,240.939 200.870,241.138 201.200 C 241.778 202.261,243.264 206.151,243.660 207.800 C 243.872 208.680,244.282 209.764,244.572 210.210 C 244.863 210.655,245.226 212.005,245.379 213.210 C 245.532 214.414,245.993 216.300,246.404 217.400 C 248.545 223.144,248.549 246.023,246.408 251.800 C 246.001 252.900,245.545 254.696,245.396 255.791 C 245.246 256.885,244.781 258.453,244.362 259.275 C 243.943 260.096,243.600 261.185,243.600 261.695 C 243.600 262.205,243.356 262.977,243.057 263.411 C 242.758 263.845,242.285 264.920,242.005 265.800 C 241.726 266.680,241.256 267.850,240.961 268.400 C 240.666 268.950,240.153 270.030,239.821 270.800 C 239.488 271.570,239.045 272.470,238.837 272.800 C 238.628 273.130,238.352 273.670,238.222 274.000 C 238.093 274.330,237.453 275.410,236.800 276.400 C 236.147 277.390,235.392 278.650,235.122 279.200 C 234.852 279.750,234.264 280.662,233.816 281.226 C 233.367 281.790,232.640 282.760,232.200 283.382 C 227.960 289.372,219.648 297.604,213.804 301.600 C 212.999 302.150,212.039 302.893,211.671 303.250 C 211.302 303.608,210.596 304.025,210.102 304.177 C 209.609 304.328,208.972 304.666,208.688 304.926 C 207.692 305.839,200.466 309.600,199.707 309.600 C 199.482 309.600,199.083 309.858,198.821 310.174 C 198.559 310.490,197.772 310.874,197.072 311.028 C 196.373 311.182,195.080 311.622,194.200 312.007 C 191.811 313.053,185.933 314.815,184.862 314.807 C 184.346 314.803,182.726 315.158,181.262 315.595 C 175.382 317.350,155.863 317.347,149.938 315.590 C 148.474 315.155,146.854 314.803,146.338 314.807 C 145.218 314.815,139.273 313.004,136.956 311.949 C 136.052 311.537,135.079 311.200,134.794 311.200 C 133.989 311.200,126.016 307.203,123.977 305.777 C 122.975 305.076,121.770 304.381,121.300 304.232 C 120.830 304.083,119.449 303.204,118.232 302.280 C 117.015 301.356,115.357 300.150,114.547 299.600 C 112.655 298.314,101.712 287.354,100.400 285.431 C 99.850 284.624,98.750 283.117,97.955 282.082 C 97.160 281.047,96.208 279.660,95.839 279.000 C 95.470 278.340,94.734 277.080,94.204 276.200 C 93.673 275.320,93.031 274.150,92.776 273.600 C 92.252 272.466,91.775 271.519,91.216 270.500 C 90.369 268.959,88.800 265.295,88.800 264.860 C 88.800 264.605,88.440 263.725,88.000 262.904 C 87.560 262.084,87.200 261.083,87.200 260.680 C 87.200 260.278,86.841 259.105,86.401 258.074 C 85.962 257.043,85.433 255.120,85.226 253.800 C 85.019 252.480,84.542 250.410,84.165 249.200 C 83.158 245.964,83.137 223.293,84.138 220.000 C 84.506 218.790,84.992 216.750,85.218 215.466 C 85.646 213.034,87.227 207.919,88.227 205.732 C 88.546 205.034,88.917 203.914,89.052 203.241 C 89.186 202.568,89.545 201.812,89.848 201.560 C 90.152 201.308,90.400 200.918,90.400 200.693 C 90.400 200.160,92.922 195.055,94.200 193.000 C 94.747 192.120,95.416 190.950,95.686 190.400 C 95.956 189.850,96.902 188.466,97.789 187.325 C 98.675 186.184,99.850 184.593,100.400 183.789 C 102.261 181.068,111.780 171.544,115.000 169.180 C 116.760 167.889,118.560 166.557,119.000 166.221 C 120.484 165.087,122.833 163.600,123.140 163.600 C 123.308 163.600,124.055 163.150,124.800 162.600 C 125.545 162.050,126.458 161.600,126.829 161.600 C 127.199 161.600,127.725 161.331,127.998 161.002 C 128.272 160.673,129.194 160.194,130.047 159.939 C 130.901 159.683,131.600 159.329,131.600 159.152 C 131.600 158.975,132.347 158.630,133.261 158.384 C 134.174 158.138,135.566 157.591,136.355 157.168 C 137.143 156.746,138.151 156.396,138.594 156.391 C 139.037 156.386,140.120 156.055,141.000 155.656 C 141.880 155.256,143.535 154.805,144.677 154.654 C 145.819 154.502,147.419 154.100,148.233 153.760 C 153.195 151.687,177.528 151.655,182.459 153.715 C 183.239 154.041,184.850 154.432,186.039 154.583 C 187.228 154.734,189.100 155.183,190.200 155.581 C 191.300 155.979,192.830 156.529,193.600 156.802 C 197.718 158.265,198.797 158.698,199.275 159.078 C 199.564 159.308,200.461 159.708,201.268 159.968 C 202.075 160.228,202.952 160.702,203.217 161.020 C 203.482 161.339,204.012 161.600,204.395 161.600 C 204.778 161.600,205.521 161.929,206.046 162.330 C 206.571 162.732,207.990 163.642,209.200 164.354 C 210.410 165.065,212.120 166.182,213.000 166.836 C 213.880 167.490,215.050 168.321,215.600 168.684 C 216.150 169.047,216.806 169.590,217.058 169.891 C 218.485 171.595,219.002 171.181,233.355 156.863 C 240.929 149.308,247.226 142.743,247.349 142.273 C 247.570 141.430,246.346 140.038,243.416 137.800 C 242.840 137.360,242.061 136.710,241.684 136.355 C 241.091 135.797,237.903 133.520,235.027 131.600 C 234.532 131.270,233.334 130.462,232.364 129.805 C 231.394 129.147,230.150 128.377,229.600 128.093 C 229.050 127.809,227.700 127.052,226.600 126.409 C 224.681 125.289,217.820 121.840,213.956 120.053 C 212.942 119.584,211.859 119.200,211.550 119.200 C 211.241 119.200,210.316 118.840,209.496 118.400 C 208.675 117.960,207.727 117.600,207.389 117.600 C 207.052 117.600,205.707 117.150,204.400 116.600 C 203.093 116.050,201.592 115.600,201.063 115.600 C 200.534 115.600,199.314 115.260,198.351 114.844 C 197.388 114.429,195.700 113.968,194.600 113.821 C 193.500 113.674,191.880 113.302,191.000 112.994 C 190.120 112.686,187.453 112.237,185.074 111.997 C 182.695 111.757,180.265 111.361,179.674 111.116 C 178.624 110.681,158.254 110.291,155.200 110.647 M161.400 193.474 C 158.030 193.692,154.313 194.416,153.446 195.023 C 152.993 195.340,152.231 195.600,151.754 195.600 C 149.539 195.600,141.328 200.685,136.789 204.868 C 135.143 206.385,131.600 210.628,131.600 211.082 C 131.600 211.313,131.302 211.749,130.938 212.051 C 130.574 212.353,130.031 213.140,129.732 213.800 C 129.433 214.460,129.029 215.270,128.834 215.600 C 127.773 217.400,126.400 220.572,126.400 221.222 C 126.400 221.634,125.997 222.922,125.503 224.085 C 124.167 227.238,124.180 241.342,125.524 244.963 C 126.006 246.262,126.400 247.578,126.400 247.887 C 126.400 248.435,128.078 252.397,128.818 253.600 C 129.022 253.930,129.433 254.740,129.732 255.400 C 130.031 256.060,130.574 256.847,130.938 257.149 C 131.302 257.451,131.600 257.961,131.600 258.282 C 131.600 259.033,140.984 268.400,141.735 268.400 C 142.047 268.400,142.549 268.698,142.851 269.062 C 143.153 269.426,143.940 269.969,144.600 270.268 C 145.260 270.567,146.070 270.971,146.400 271.166 C 147.995 272.106,151.337 273.600,151.844 273.600 C 152.158 273.600,153.703 274.050,155.277 274.600 C 161.808 276.882,174.680 275.878,181.779 272.532 C 182.867 272.020,183.992 271.600,184.279 271.600 C 184.565 271.600,184.800 271.438,184.800 271.239 C 184.800 271.041,185.353 270.685,186.030 270.450 C 186.706 270.214,187.831 269.558,188.530 268.993 C 189.228 268.428,190.205 267.659,190.700 267.283 C 193.112 265.453,196.502 262.138,198.062 260.084 C 199.017 258.828,199.907 257.710,200.040 257.600 C 200.173 257.490,200.599 256.725,200.986 255.900 C 201.374 255.075,201.836 254.400,202.014 254.400 C 202.191 254.400,202.464 253.815,202.620 253.100 C 202.776 252.385,203.241 251.371,203.652 250.846 C 204.063 250.321,204.400 249.489,204.400 248.997 C 204.400 248.505,204.760 247.288,205.200 246.293 C 208.347 239.178,206.624 222.417,201.962 214.800 C 201.760 214.470,201.293 213.615,200.923 212.900 C 199.622 210.380,199.443 210.517,184.253 225.722 C 169.976 240.012,168.095 241.600,165.438 241.600 C 163.188 241.600,160.556 239.826,159.405 237.536 C 157.462 233.667,158.362 231.759,165.466 224.694 C 168.290 221.885,170.808 219.365,171.063 219.094 C 171.318 218.822,174.963 215.186,179.163 211.014 C 183.363 206.842,186.800 203.299,186.800 203.141 C 186.800 202.983,187.160 202.740,187.600 202.600 C 190.465 201.691,183.448 195.586,179.551 195.598 C 179.194 195.599,178.113 195.251,177.150 194.825 C 175.485 194.089,167.548 193.109,164.600 193.276 C 163.940 193.314,162.500 193.402,161.400 193.474 M0.000 324.800 L 0.000 400.000 75.000 400.000 C 123.762 400.000,150.000 399.863,150.000 399.608 C 150.000 399.056,148.877 398.854,143.400 398.425 C 140.760 398.217,137.880 397.792,137.000 397.479 C 136.120 397.166,134.140 396.778,132.600 396.616 C 131.060 396.453,129.170 396.053,128.400 395.727 C 127.630 395.400,125.844 394.964,124.431 394.758 C 123.018 394.552,121.656 394.212,121.403 394.003 C 121.151 393.793,119.766 393.349,118.325 393.014 C 116.883 392.680,115.186 392.136,114.552 391.806 C 113.919 391.475,113.033 391.204,112.585 391.202 C 112.136 391.201,111.063 390.840,110.200 390.400 C 109.337 389.960,108.404 389.600,108.127 389.600 C 107.850 389.600,106.640 389.150,105.437 388.600 C 104.235 388.050,103.075 387.600,102.858 387.600 C 102.642 387.600,101.570 387.150,100.475 386.600 C 99.380 386.050,98.217 385.600,97.891 385.600 C 97.565 385.600,97.074 385.330,96.800 385.000 C 96.526 384.670,96.118 384.400,95.893 384.400 C 95.363 384.400,89.462 381.576,89.200 381.197 C 89.090 381.038,88.550 380.770,88.000 380.601 C 87.450 380.433,86.550 379.982,86.000 379.600 C 85.450 379.218,84.595 378.779,84.100 378.626 C 83.605 378.472,83.200 378.198,83.200 378.016 C 83.200 377.835,82.515 377.413,81.677 377.078 C 80.840 376.743,79.918 376.183,79.628 375.834 C 79.339 375.485,78.919 375.200,78.696 375.200 C 78.472 375.200,76.767 374.165,74.908 372.900 C 73.048 371.635,71.067 370.299,70.506 369.931 C 69.944 369.563,69.376 369.112,69.243 368.930 C 69.109 368.747,68.190 368.060,67.200 367.403 C 56.995 360.632,38.900 342.344,31.009 330.827 C 30.019 329.382,28.307 326.882,27.204 325.270 C 26.102 323.659,25.200 322.187,25.200 322.001 C 25.200 321.814,24.794 321.153,24.297 320.531 C 23.801 319.909,22.790 318.190,22.051 316.711 C 21.312 315.232,20.458 313.814,20.154 313.562 C 19.849 313.309,19.600 312.788,19.600 312.405 C 19.600 312.022,19.265 311.279,18.855 310.754 C 18.445 310.229,17.971 309.350,17.800 308.800 C 17.629 308.250,17.155 307.371,16.745 306.846 C 16.335 306.321,16.000 305.725,16.000 305.521 C 16.000 305.085,14.307 301.237,13.185 299.121 C 12.753 298.307,12.400 297.312,12.400 296.910 C 12.400 296.507,12.156 295.823,11.857 295.389 C 11.558 294.955,11.095 293.880,10.827 293.000 C 10.559 292.120,10.097 290.860,9.800 290.200 C 8.946 288.299,7.588 283.971,7.208 281.939 C 7.017 280.915,6.587 279.548,6.252 278.901 C 5.918 278.254,5.519 276.752,5.366 275.563 C 5.214 274.373,4.779 272.590,4.400 271.600 C 4.022 270.610,3.593 268.597,3.448 267.126 C 3.302 265.656,2.928 263.730,2.617 262.847 C 2.172 261.587,1.200 252.854,1.200 250.120 C 1.200 249.834,0.930 249.600,0.600 249.600 C 0.069 249.600,0.000 258.222,0.000 324.800 " stroke="none" fill="#fcfbfb" fill-rule="evenodd"></path></g></svg>